<svg id="Layer_1" data-name="Layer 1" xmlns="http://www.w3.org/2000/svg" viewBox="0 0 119.34 18.2"><defs><style>.cls-1{fill:#95d600;}.cls-2{fill:#262729;}</style></defs><title>Artboard 5</title><rect class="cls-1" y="14.32" width="3.88" height="3.88"/><path class="cls-2" d="M3.88,1.49,5.67,3.88H9.85a.9.9,0,0,1,.9.9v8.65a.9.9,0,0,1-.9.9H5.07V18.2h5.67a3.88,3.88,0,0,0,3.88-3.88V4.18A4.19,4.19,0,0,0,10.44,0H0V13.13H3.88Z"/><polygon class="cls-2" points="22.38 14.32 22.38 11.04 29.24 11.04 29.24 7.16 22.38 7.16 22.38 3.88 31.33 3.88 31.33 0 18.5 0 18.5 18.2 31.33 18.2 31.33 14.32 22.38 14.32"/><path class="cls-2" d="M51.32,7.76V18.2h3.88V0h-3c-.6,0-.89.06-1.19.6L45.35,10.74,39.68.6c-.3-.54-.6-.6-1.19-.6h-3V18.2h3.88V7.61l6,10.44"/><rect class="cls-2" x="60.27" width="3.88" height="18.2"/><polygon class="cls-2" points="101.74 0 87.12 0 87.12 3.88 92.49 3.88 92.49 18.2 96.37 18.2 96.37 3.88 101.74 3.88 101.74 0"/><path class="cls-2" d="M72.8,7.16H80a4,4,0,0,1,3.86,4.19l0,2.67A4,4,0,0,1,80,18.2H72.8a3.88,3.88,0,0,1-3.88-3.88V13.13l3.88,0v.58a.6.6,0,0,0,.6.6h6a.61.61,0,0,0,.6-.6V11H72.8a3.88,3.88,0,0,1-3.88-3.88v-3A4.19,4.19,0,0,1,73.1,0h6.56a4.18,4.18,0,0,1,4.18,4.18v.9H80v-.6a.6.6,0,0,0-.6-.6h-6a.64.64,0,0,0-.6.6"/><path class="cls-2" d="M115.46,0H108.6a3.88,3.88,0,0,0-3.88,3.88V14.62a3.62,3.62,0,0,0,3.88,3.58h6.86a3.88,3.88,0,0,0,3.88-3.88V3.88A3.88,3.88,0,0,0,115.46,0Zm0,16.71-1.79-2.39H109.2a.6.6,0,0,1-.6-.6V4.48a.6.6,0,0,1,.6-.6h5.67a.6.6,0,0,1,.6.6Z"/></svg>