<svg id="Layer_1" data-name="Layer 1" xmlns="http://www.w3.org/2000/svg" viewBox="0 0 122.71 23.81"><defs><style>.cls-1{fill:#fb8521;}</style></defs><title>Artboard 20</title><polygon points="26.77 6.79 28.58 6.79 28.58 17.45 34.4 17.45 33.76 19.22 26.77 19.22 26.77 6.79"/><path d="M49.7,16.21a5.11,5.11,0,0,0,3.39,1.24q2.33,0,2.36-1.73,0-1.39-1.56-1.67l-1.58-.23A3.85,3.85,0,0,1,50,12.63a3.38,3.38,0,0,1-.83-2.3,3.48,3.48,0,0,1,1-2.63,4,4,0,0,1,2.85-1A6.53,6.53,0,0,1,56.9,8l-1,1.55a5.32,5.32,0,0,0-3-1A2.19,2.19,0,0,0,51.55,9a1.65,1.65,0,0,0-.6,1.35,1.4,1.4,0,0,0,.4,1,2.27,2.27,0,0,0,1.29.62l1.34.2a3.66,3.66,0,0,1,2.48,1.26,3.62,3.62,0,0,1,.8,2.32q-.09,3.57-4.19,3.62a6.62,6.62,0,0,1-4.56-1.7Z"/><path d="M84.44,13a21.7,21.7,0,0,1,.12-2.91A3.54,3.54,0,0,1,85,8.91a4.23,4.23,0,0,1,1.39-1.53,4,4,0,0,1,2.35-.7,4,4,0,0,1,2.37.7,4.12,4.12,0,0,1,1.36,1.54,3,3,0,0,1,.42,1.18A25.08,25.08,0,0,1,93,13a25.12,25.12,0,0,1-.11,2.88,3,3,0,0,1-.42,1.2,4,4,0,0,1-1.36,1.52,4.13,4.13,0,0,1-2.37.72A4.29,4.29,0,0,1,85,17.09c-.09-.19-.17-.37-.24-.54a3.63,3.63,0,0,1-.16-.67A21.64,21.64,0,0,1,84.44,13m1.81,0a15.25,15.25,0,0,0,.13,2.49,2.34,2.34,0,0,0,1.22,1.68,2.07,2.07,0,0,0,1.1.28,2.18,2.18,0,0,0,1.12-.28,2,2,0,0,0,.72-.62A2.24,2.24,0,0,0,91,15.49,16.14,16.14,0,0,0,91.15,13,16.53,16.53,0,0,0,91,10.5a2.22,2.22,0,0,0-.49-1,2.16,2.16,0,0,0-.72-.64,2.55,2.55,0,0,0-1.12-.27,2.41,2.41,0,0,0-1.1.27,2.28,2.28,0,0,0-.75.64,2.11,2.11,0,0,0-.47,1A15.64,15.64,0,0,0,86.25,13"/><rect x="96.7" y="6.79" width="1.81" height="12.44"/><polygon points="102.46 6.79 104.16 6.79 109.57 15.63 109.6 15.63 109.6 6.79 111.41 6.79 111.41 19.22 109.7 19.22 104.3 10.38 104.27 10.38 104.27 19.22 102.46 19.22 102.46 6.79"/><path d="M42.3,6.79H40.79L36.45,19.22h1.92l.92-2.78h0l.52-1.67,1.73-5.44h0l1.73,5.44H41.61a2.69,2.69,0,0,0-2.33,1.67h4.52l.92,2.78h1.91Z"/><path d="M81.22,8.85a3,3,0,0,0-.92-1.19A3.63,3.63,0,0,0,79,6.92a6.75,6.75,0,0,0-1.36-.14H73.29V19.22H75.1V8.56h2.62A2.21,2.21,0,0,1,79,8.91a1.54,1.54,0,0,1,.57.61,2.52,2.52,0,0,1,.2,1.05,2.17,2.17,0,0,1-.49,1.37,1.87,1.87,0,0,1-1.52.65h.17a3.94,3.94,0,0,0-2.85,1.77h2.75a3.47,3.47,0,0,0,2.8-1.23,3.86,3.86,0,0,0,.93-2.51,4,4,0,0,0-.37-1.78"/><path d="M114.36,6.79V8.46h5.06a3.94,3.94,0,0,0-1.79,2.85v7.91h1.81V8.46h2.64l.63-1.67Z"/><path d="M18,13.91h4.27l.63-1.67H20.62A4,4,0,0,0,18,13.91"/><polygon points="16.18 6.79 16.18 19.22 17.98 19.22 17.98 14 17.98 14 17.98 12.22 17.98 8.56 22.6 8.56 23.17 8.56 23.8 6.79 16.18 6.79"/><polygon points="62.58 12.12 62.58 6.79 60.78 6.79 60.78 19.22 62.58 19.22 62.58 13.79 62.59 12.12 62.58 12.12"/><path d="M67.32,6.79v5.33h-1.9a3.93,3.93,0,0,0-2.84,1.67h4.73v5.44h1.81V6.79Z"/><path class="cls-1" d="M6.71,8.41A28.45,28.45,0,0,0,4.53,15.6a13.85,13.85,0,0,1,.66,3.66,3.8,3.8,0,0,1-1.34,3.23,3.8,3.8,0,0,1-1.34-3.23,12.81,12.81,0,0,1,.66-3.68c.59-2.07,3.3-8,3.3-8S5.93,5.56,5.38,4l-.1-.29A8.87,8.87,0,0,1,5,5.34,25.06,25.06,0,0,0,3.85,0s0,1.3-1.93,7.12C1.08,9.68,0,12.62,0,15.14c0,6.32,3.85,8.67,3.85,8.67s3.85-2.35,3.85-8.67a28.4,28.4,0,0,0-1-6.72"/></svg>