<?xml version="1.0" encoding="utf-8"?>
<!-- Generator: Adobe Illustrator 22.0.1, SVG Export Plug-In . SVG Version: 6.00 Build 0)  -->
<svg version="1.1" xmlns="http://www.w3.org/2000/svg" xmlns:xlink="http://www.w3.org/1999/xlink" x="0px" y="0px"
	 viewBox="0 0 536.1 119.9" style="enable-background:new 0 0 536.1 119.9;" xml:space="preserve">
<style type="text/css">
	.st0{fill:#263746;}
</style>
<g id="Layer_1">
</g>
<g id="Layer_2">
	<g>
		<g>
			<path class="st0" d="M44,0L0,25.4v46.3c0,29.4,40.1,46.6,41.8,47.3l2.2,0.9l0,0v-0.1v0.1l2.2-0.9c0.5-0.2,4.6-2,10-5.1l-12.1-7
				V93.1l23.2,13.4c3-2.3,6-5,8.7-7.9L44,80.2V66.4L83.1,89c1.9-3.3,3.3-6.8,4.1-10.6L44,53.5V39.7l44,25.4V52.1L44,26.7V12.9
				l44,25.4V25.4v0L44,0z"/>
		</g>
	</g>
</g>
<g id="Layer_3">
	<path class="st0" d="M130.4,34.7h7.2v54.3h-7.2V34.7z"/>
	<path class="st0" d="M145.3,34.7h19.7c4.7,0,11.2,0,14.4,2c3.6,2.1,6.4,5.9,6.4,11.3c0,5.8-3,10.1-8.1,12.2v0.2
		c6.7,1.4,10.3,6.4,10.3,13.1c0,7.9-5.8,15.6-16.5,15.6h-26.2V34.7z M152.5,58h14.4c8.2,0,11.6-2.9,11.6-8.7c0-7.6-5.2-8.6-11.6-8.6
		h-14.4V58z M152.5,82.8h18.1c6.3,0,10.2-3.7,10.2-9.7c0-7.1-5.7-9-11.8-9h-16.5V82.8z"/>
	<path class="st0" d="M193.6,34.7h9.9l17.1,45.6l17.2-45.6h9.9v54.3h-6.8V43.8h-0.2l-16.9,45.1h-6.2l-16.9-45.1h-0.2v45.1h-6.8V34.7
		z"/>
	<path class="st0" d="M307.5,50.5c-0.8-7.8-5.9-11.1-13.5-11.1c-6.2,0-12.2,2.2-12.2,9.3c0,13.4,34.7,4,34.7,25.3
		c0,11.6-11.3,16.2-21.2,16.2c-12.2,0-22.4-6-22.4-19.2h6.8c0,9.1,7.6,13.1,15.8,13.1c6.5,0,13.8-2.1,13.8-9.9
		c0-14.9-34.7-5.1-34.7-25c0-10.9,9.7-15.9,19.7-15.9c11.1,0,19.6,5.2,20,17.2H307.5z"/>
	<path class="st0" d="M355.4,76.5c-1.7,8.7-7.9,13.4-16.8,13.4c-12.5,0-18.5-8.7-18.8-20.7c0-11.9,7.8-20.4,18.5-20.4
		c13.9,0,18.2,13,17.8,22.5h-29.4c-0.2,6.8,3.6,12.9,12.2,12.9c5.4,0,9-2.5,10.2-7.7H355.4z M349.2,65.5
		c-0.4-6.2-4.9-11.1-11.3-11.1c-6.7,0-10.9,5-11.2,11.1H349.2z"/>
	<path class="st0" d="M389,62.2c-1-4.9-4.3-7.8-9.7-7.8c-9.3,0-12.2,7.4-12.2,15.4c0,7.3,3.3,14.4,11.5,14.4c6.3,0,10-3.6,10.8-9.6
		h6.6c-1.4,9.7-7.4,15.3-17.3,15.3c-12,0-18.4-8.3-18.4-20.1c0-11.8,6.1-21.1,18.5-21.1c9,0,16,4.2,16.9,13.5H389z"/>
	<path class="st0" d="M432.8,88.9h-6.1v-6.2h-0.2c-2.7,4.9-7.1,7.1-12.8,7.1c-10.3,0-13.5-5.9-13.5-14.4V49.6h6.5v26.6
		c0,4.9,3,7.9,8,7.9c7.8,0,11.6-5.2,11.6-12.3V49.6h6.5V88.9z"/>
	<path class="st0" d="M438.9,49.6h6.1v8.3h0.2c3.1-6.4,7.4-9.4,14.4-9.2v6.8c-10.4,0-14.2,5.9-14.2,15.9v17.5h-6.5V49.6z"/>
	<path class="st0" d="M469.9,42.6h-6.5v-7.9h6.5V42.6z M463.4,49.6h6.5v39.3h-6.5V49.6z"/>
	<path class="st0" d="M487.5,49.6h7.8v5.7h-7.8v24.4c0,3,0.8,3.5,4.9,3.5h3v5.7h-4.9c-6.7,0-9.3-1.4-9.3-8.6v-25h-6.7v-5.7h6.7V37.8
		h6.5V49.6z"/>
	<path class="st0" d="M519,94.2c-3,7.6-5.6,10.5-11.4,10.5c-1.5,0-3-0.2-4.5-0.7V98c1.2,0.4,2.5,0.9,3.8,0.9c2.7,0,4.1-1.2,5.3-3.6
		l2.7-6.7l-15.6-39.1h7.3l11.5,32.1h0.2l11-32.1h6.8L519,94.2z"/>
</g>
</svg>
