<?xml version="1.0" encoding="utf-8"?>
<!-- Generator: Adobe Illustrator 21.0.0, SVG Export Plug-In . SVG Version: 6.00 Build 0)  -->
<svg version="1.1" id="Capa_1" xmlns="http://www.w3.org/2000/svg" xmlns:xlink="http://www.w3.org/1999/xlink" x="0px" y="0px"
	 viewBox="0 0 427.518 83.617" enable-background="new 0 0 427.518 83.617" xml:space="preserve">
<g>
	<path fill="#C01818" d="M213.466,54.263l-11.152-6.627l-0.829,1.299c-2.543,3.994-6.016,6.02-10.321,6.016
		c-7.377-0.004-12.937-5.568-12.933-12.947c0.004-7.375,5.57-12.933,12.946-12.93c4.367,0.004,7.648,1.922,10.324,6.039l0.832,1.279
		l11.205-6.642l-0.969-1.401c-5.352-7.754-12.348-11.524-21.385-11.529c-17.084-0.008-26.31,12.965-26.315,25.176
		c-0.007,12.213,9.203,25.197,26.286,25.205c8.704,0.006,16.917-4.422,21.436-11.555L213.466,54.263z"/>
	<path fill="#C01818" d="M212.908,67.214l15.421,0.008l4.581-11.396l23.141,0.012l4.568,11.402l15.487,0.01L248.482,0.451
		l-13.755-0.009l3.663,8.856L212.908,67.214 M244.582,26.794l6.241,15.67l-12.568-0.008L244.582,26.794z"/>
	<path fill="#C01818" d="M282.489,67.252l13.531,0.008l0.017-29.979l8.823,0.006l0.007-12.577l-8.823-0.006l0.003-5.943
		c0.001-2.551,1.71-5.26,4.875-5.258c1.738,0.001,2.788,0.298,3.834,0.746l1.507,0.649l5.621-12.271l-1.619-0.662
		c-2.515-1.031-6.018-1.401-8.46-1.403c-6.136-0.003-11.193,2.003-14.63,5.8c-3,3.315-4.655,7.926-4.659,12.979l-0.003,5.356
		l-5.975-0.003l-0.007,12.578l5.976,0.002L282.489,67.252z"/>
	<polygon fill="#C01818" points="101.08,0.057 101.08,67.15 115.782,67.16 115.803,28.802 130.053,39.417 144.315,28.802 
		144.315,67.175 158.995,67.183 159.033,0.057 130.063,21.946 	"/>
	<path fill="#C01818" d="M335.332,17.05c-17.031-0.009-26.23,12.928-26.238,25.102c-0.006,12.178,9.179,25.121,26.21,25.131h0.009
		h0.011c7.81-0.084,15.134-3.642,20.803-10.061l-11.036-6.019c-2.829,2.898-6.266,4.422-10.058,4.42
		c-5.558-0.004-10.485-3.707-11.774-8.551l36.802,0.02l0.002-3.342C360.073,25.344,345.608,17.056,335.332,17.05z M323.532,35.96
		c1.767-4.577,5.577-7.249,10.502-7.247c4.977,0.003,8.862,2.62,10.922,7.259L323.532,35.96z"/>
	<path fill="#C01818" d="M390.645,17.081c-17.033-0.01-26.229,12.927-26.237,25.102c-0.007,12.178,9.176,25.121,26.21,25.131h0.008
		h0.009c7.812-0.084,15.137-3.645,20.805-10.061l-11.036-6.02c-2.831,2.898-6.266,4.422-10.057,4.42
		c-5.559-0.004-10.487-3.707-11.775-8.551l36.802,0.02l0.003-3.342C415.386,25.374,400.92,17.087,390.645,17.081z M378.845,35.991
		c1.766-4.577,5.574-7.25,10.502-7.247c4.977,0.003,8.862,2.62,10.922,7.259L378.845,35.991z"/>
	<path fill="#C01818" d="M413.645,14.839h5.728v1.07h-2.25v6.005h-1.238v-6.005h-2.24V14.839z"/>
	<path fill="#C01818" d="M420.175,14.839h1.744l1.952,5.54h0.02l1.903-5.54h1.724v7.075h-1.179v-5.46h-0.021l-1.961,5.46h-1.021
		l-1.963-5.46h-0.019v5.46h-1.179V14.839z"/>
	<polygon fill="#BD2E2B" points="14.896,57.289 14.896,23.29 36.343,33.208 36.343,16.806 0,0 0,66.796 36.343,83.617 
		36.343,67.211 	"/>
	<polygon fill="#75160D" points="57.79,57.289 57.79,23.29 36.343,33.208 36.343,16.806 72.686,0 72.686,66.796 36.343,83.617 
		36.343,67.211 	"/>
</g>
</svg>
