<svg id="Layer_1" data-name="Layer 1" xmlns="http://www.w3.org/2000/svg" viewBox="0 0 131.59 28.1"><defs><style>.cls-1{fill:#f25022;}.cls-2{fill:#80ba01;}.cls-3{fill:#777;}.cls-4{fill:#02a4ef;}.cls-5{fill:#ffb902;}</style></defs><title>Artboard 7</title><path class="cls-1" d="M0,0H13.37q0,6.68,0,13.37H0V0Z"/><path class="cls-2" d="M14.73,0H28.1q0,6.68,0,13.37H14.73q0-6.68,0-13.37Z"/><path class="cls-3" d="M120.54,5.09a5.25,5.25,0,0,1,4.21-.49c0,.83,0,1.65,0,2.48a2.76,2.76,0,0,0-2.13-.2,1.69,1.69,0,0,0-1,1.35,18.19,18.19,0,0,0-.05,2.16h4.23c0-.92,0-1.83,0-2.75,1-.27,1.91-.58,2.86-.87,0,1.21,0,2.41,0,3.62,1,0,1.91,0,2.86,0v2.35c-1,0-1.91,0-2.87,0,0,1.35,0,2.7,0,4,0,.75,0,1.5,0,2.24a1.45,1.45,0,0,0,.62,1.15,2.15,2.15,0,0,0,2.2-.21v2.37a5.65,5.65,0,0,1-2.64.4,3.21,3.21,0,0,1-2.28-1,4.32,4.32,0,0,1-.82-2.76c0-2.07,0-4.14,0-6.21h-4.23q0,4.88,0,9.75h-2.89q0-4.87,0-9.75c-.67,0-1.34,0-2,0,0-.77,0-1.54,0-2.32.67,0,1.34,0,2,0a12.32,12.32,0,0,1,.2-3.08,3.94,3.94,0,0,1,1.63-2.23Z"/><path class="cls-3" d="M58.65,5.26a1.77,1.77,0,0,1,1.6.57,1.65,1.65,0,0,1,.2,1.88,1.8,1.8,0,0,1-1.92.81A1.63,1.63,0,0,1,57.18,6.9a1.67,1.67,0,0,1,1.47-1.64Z"/><path class="cls-3" d="M36.49,5.62h4.2q2,5,3.94,10c.33.83.65,1.67,1,2.5C47.31,13.93,49,9.79,50.69,5.63c1.35,0,2.7,0,4,0q0,8.43,0,16.86c-1,0-1.95,0-2.92,0,0-4.15,0-8.29,0-12.44,0-.19,0-.37,0-.56a2.23,2.23,0,0,0-.15.27c-1.67,4.24-3.37,8.48-5,12.73-.69,0-1.38,0-2.08,0C42.82,18.24,41.12,14,39.4,9.74l-.15-.26c0,1.82,0,3.64,0,5.45q0,3.77,0,7.55H36.49q0-8.43,0-16.86Z"/><path class="cls-3" d="M66.6,10.38a7.91,7.91,0,0,1,4.29,0,3.47,3.47,0,0,1,.82.34c0,.92,0,1.84,0,2.76a4.59,4.59,0,0,0-3.3-1A3.39,3.39,0,0,0,66,13.83a4.66,4.66,0,0,0-.77,3.35,3.62,3.62,0,0,0,1.17,2.4,3.66,3.66,0,0,0,2.7.81,5.51,5.51,0,0,0,2.59-1.06c0,.87,0,1.75,0,2.62a7,7,0,0,1-4,.82A5.86,5.86,0,0,1,64,21.18a6,6,0,0,1-1.75-4,7.32,7.32,0,0,1,1.14-4.49,5.82,5.82,0,0,1,3.21-2.27Z"/><path class="cls-3" d="M98.18,10.2a7.65,7.65,0,0,1,4,.42c0,.89,0,1.77,0,2.66a5.09,5.09,0,0,0-3-.9,1.55,1.55,0,0,0-1.38.76,1.25,1.25,0,0,0,.42,1.48c.82.55,1.8.78,2.65,1.27a3.81,3.81,0,0,1,1.66,1.58,3.53,3.53,0,0,1-.75,4.07,5.53,5.53,0,0,1-4,1.22,8.6,8.6,0,0,1-2.94-.67c0-.93,0-1.86,0-2.79a6.32,6.32,0,0,0,2.62,1.13,3.38,3.38,0,0,0,2-.18,1.15,1.15,0,0,0,.35-1.64,3.48,3.48,0,0,0-1.26-.83A12.1,12.1,0,0,1,96,16.49a3,3,0,0,1-1.08-1.64,3.69,3.69,0,0,1,.4-2.88,4.3,4.3,0,0,1,2.88-1.77Z"/><path class="cls-3" d="M78.19,10.58a3.26,3.26,0,0,1,2.68-.23c0,1,0,1.93,0,2.89a3.07,3.07,0,0,0-2-.46,2.4,2.4,0,0,0-1.81,1.45,5.34,5.34,0,0,0-.41,2.47q0,2.89,0,5.78H73.84q0-6,0-12.08c1,0,1.9,0,2.85,0,0,.69,0,1.38,0,2.07a3.7,3.7,0,0,1,1.49-1.89Z"/><path class="cls-3" d="M57.44,10.4c1,0,1.92,0,2.88,0,0,4,0,8.05,0,12.07H57.44q0-6,0-12.08Z"/><path class="cls-3" d="M86.19,10.18a7.67,7.67,0,0,1,4.14.49,5.11,5.11,0,0,1,2.52,2.55A7.93,7.93,0,0,1,93.43,17a6.41,6.41,0,0,1-1.27,3.52,5.6,5.6,0,0,1-3.32,2,8.3,8.3,0,0,1-3.38,0,5.47,5.47,0,0,1-3.34-2.18,6.94,6.94,0,0,1-1.06-4.51,6.44,6.44,0,0,1,1.33-3.69,5.77,5.77,0,0,1,3.8-2Zm.86,2.29a3,3,0,0,0-1.9.75A3.84,3.84,0,0,0,84,15.74a5.58,5.58,0,0,0,.44,3,2.89,2.89,0,0,0,1.81,1.49,3.9,3.9,0,0,0,2.36-.1,2.64,2.64,0,0,0,1.42-1.4,6.33,6.33,0,0,0,.41-3,3.9,3.9,0,0,0-1-2.52,3.11,3.11,0,0,0-2.42-.82Z"/><path class="cls-3" d="M109.23,10.17a7.49,7.49,0,0,1,4.29.58A5.16,5.16,0,0,1,116,13.57a7.7,7.7,0,0,1,.45,2.89,6.61,6.61,0,0,1-1.31,4.12,5.65,5.65,0,0,1-3.55,2.08,7.77,7.77,0,0,1-4.07-.34,5.36,5.36,0,0,1-2.94-2.85,8,8,0,0,1-.45-4.2A5.92,5.92,0,0,1,106,11.54a6,6,0,0,1,3.19-1.37Zm.78,2.3a3,3,0,0,0-2.11,1,4.18,4.18,0,0,0-.88,2.41,5.74,5.74,0,0,0,.34,2.63,2.93,2.93,0,0,0,1.52,1.6,3.82,3.82,0,0,0,2.07.22,2.71,2.71,0,0,0,1.69-.91,3.77,3.77,0,0,0,.75-1.77,7.34,7.34,0,0,0,0-2.58,3.31,3.31,0,0,0-1-1.92,3.17,3.17,0,0,0-2.32-.68Z"/><path class="cls-4" d="M0,14.73H13.37q0,6.68,0,13.37H0V14.73Z"/><path class="cls-5" d="M14.73,14.73H28.1V28.1H14.73q0-6.68,0-13.37Z"/></svg>