<svg id="Layer_1" data-name="Layer 1" xmlns="http://www.w3.org/2000/svg" viewBox="0 0 120.62 64.46"><defs><style>.cls-1{fill:#008cc1;}.cls-2{fill:#fff;}</style></defs><title>Artboard 8</title><g id="_Group_" data-name="&lt;Group&gt;"><rect id="_Path_" data-name="&lt;Path&gt;" class="cls-1" x="3.07" y="11.45" width="114.48" height="41.56" transform="translate(-5.38 13.24) rotate(-12)"/><path id="_Path_2" data-name="&lt;Path&gt;" class="cls-2" d="M77.88,42.64l.61-.12S78,40.27,78,40l2.54,2.13.66-.12-.74-3.44-.61.12s.49,2.25.53,2.54L77.8,39.08l-.66.12Z"/><path id="_Path_3" data-name="&lt;Path&gt;" class="cls-2" d="M81.94,41.78l2.79-.57-.12-.53s-2,.45-2.17.45l-.2-.94,2-.45-.12-.53-2,.45a5.34,5.34,0,0,1-.16-.86c.12,0,2.13-.45,2.13-.45l-.12-.53-2.75.57Z"/><path id="_Path_4" data-name="&lt;Path&gt;" class="cls-2" d="M84.64,38.17s1.11-.25,1.23-.25.61,2.91.61,2.91l.61-.12s-.57-2.79-.61-2.91c.12,0,1.23-.25,1.23-.25L87.6,37l-3,.66Z"/><path id="_Path_5" data-name="&lt;Path&gt;" class="cls-2" d="M89.89,40.06l.61-.12s.25-2.54.29-2.83c.16.25,1.43,2.46,1.43,2.46l.61-.12.41-3.69-.61.12s-.2,2.46-.25,2.75c-.16-.25-1.39-2.42-1.39-2.42l-.66.12s-.25,2.46-.29,2.75L88.7,36.66l-.66.12Z"/><path id="_Compound_Path_" data-name="&lt;Compound Path&gt;" class="cls-2" d="M95.26,35.26a1.89,1.89,0,0,0-1.27.82,1.8,1.8,0,0,0-.2,1.39,1.77,1.77,0,0,0,.78,1.19,1.8,1.8,0,0,0,1.48.2,1.85,1.85,0,1,0-.78-3.61m-.37,2.91a1.32,1.32,0,0,1-.53-.82h0a1.33,1.33,0,0,1,.12-1,1.26,1.26,0,0,1,.86-.53h0a1.28,1.28,0,0,1,.53,2.5,1.63,1.63,0,0,1-1-.16"/><path id="_Compound_Path_2" data-name="&lt;Compound Path&gt;" class="cls-2" d="M98.54,38.26l.61-.12s-.29-1.31-.29-1.39l1.19-.25c.33-.08.57,0,.74.61l0,.12c.08.33.12.45.25.53h0l.66-.12-.12-.08c-.12-.08-.16-.25-.33-.82a.71.71,0,0,0-.53-.61,1,1,0,0,0-.86-1.64l-2,.45Zm0-3c.12,0,1.31-.29,1.31-.29a.45.45,0,0,1,.61.37.44.44,0,0,1-.41.57s-1.19.25-1.27.29a4.59,4.59,0,0,1-.25-.94"/><path id="_Path_6" data-name="&lt;Path&gt;" class="cls-2" d="M102.43,37.44l.61-.12s-.25-1.07-.25-1.11a7,7,0,0,0,.41-.57c.08.08,1.64,1.31,1.64,1.31l.82-.16s-2-1.56-2.09-1.64c.08-.08,1.31-1.8,1.31-1.8l-.86.16s-1.27,1.76-1.39,2l-.33-1.6-.61.12Z"/><path id="_Path_7" data-name="&lt;Path&gt;" class="cls-2" d="M105.59,34.16a1,1,0,0,0,1.23.7l.78,0c.41,0,.61.08.66.33a.46.46,0,0,1,0,.33,1.11,1.11,0,0,1-.66.37c-.37.08-1,.12-1.15-.49v0l-.61.12v0a1.29,1.29,0,0,0,.49.78,1.76,1.76,0,0,0,1.35.16,2,2,0,0,0,1.11-.66.94.94,0,0,0,.12-.82c-.16-.74-.94-.7-1.23-.7l-.82,0c-.45,0-.53-.16-.57-.29a.46.46,0,0,1,0-.33.72.72,0,0,1,.53-.33c.74-.16.94.12,1,.37v0l.57-.12v-.08c-.2-.7-.78-1-1.68-.78s-1.27.74-1.15,1.39"/><path id="_Compound_Path_3" data-name="&lt;Compound Path&gt;" class="cls-2" d="M46.19,30.84a3.51,3.51,0,0,0-2.79-.41,3.27,3.27,0,0,0-2.5,1.89l-.12-.66a1.33,1.33,0,0,0-1.15-.33,1.27,1.27,0,0,0-.9.74l3.07,14.68,2.13-.45-1.15-5.45a3.29,3.29,0,0,0,3,.66A3.44,3.44,0,0,0,48.16,40c.82-1.31.57-3.2.2-4.84s-.9-3.44-2.17-4.3M44.8,39.65c-1.93.41-2.54-1.23-3-3.12s-.45-3.65,1.43-4.06,2.54,1.19,3,3.12.49,3.65-1.43,4.06"/><path id="_Compound_Path_4" data-name="&lt;Compound Path&gt;" class="cls-2" d="M57.22,38.87l-.2-1a3.61,3.61,0,0,1-2.58,1.72,3.67,3.67,0,0,1-3-.37,3.31,3.31,0,0,1-1.31-2.13c-.37-1.8.57-3.36,3-3.89l2.79-.57-.16-.78C55.42,30.51,54.6,30,53,30.35a2.55,2.55,0,0,0-2.09,1.52l-1.68-1a4.38,4.38,0,0,1,3.44-2.34c2.87-.61,4.59.33,5.12,2.79l1.52,7.21Zm-1-4.76-2.46.53c-1.23.25-1.76,1-1.56,2s.94,1.39,2.25,1.11a2.55,2.55,0,0,0,1.84-1A2.21,2.21,0,0,0,56.4,35Z"/><path id="_Path_8" data-name="&lt;Path&gt;" class="cls-2" d="M64.27,35.47c-.86.16-1.23-.16-1.39-1L60.34,22.39a1.38,1.38,0,0,0-1.19-.33,1.23,1.23,0,0,0-.94.78L60.79,35a2.8,2.8,0,0,0,3.53,2.38l1.31-.29-.41-1.84Z"/><path id="_Compound_Path_5" data-name="&lt;Compound Path&gt;" class="cls-2" d="M73.62,34.2a4.22,4.22,0,0,1-2.87,1.93,4.31,4.31,0,0,1-3.4-.61c-1.23-.86-1.76-2.17-2.13-4s-.41-3.24.33-4.51a4.22,4.22,0,0,1,2.87-1.93,4.45,4.45,0,0,1,3.44.61c1.23.86,1.76,2.17,2.13,4s.41,3.24-.37,4.51M70.5,27.35a2.17,2.17,0,0,0-1.68-.29,2,2,0,0,0-1.39.94,4.43,4.43,0,0,0-.08,3.12,4.2,4.2,0,0,0,1.35,2.79,2.18,2.18,0,0,0,1.68.33,2.25,2.25,0,0,0,1.43-1,4.43,4.43,0,0,0,.08-3.12,4.41,4.41,0,0,0-1.39-2.79"/><path id="_Path_9" data-name="&lt;Path&gt;" class="cls-2" d="M90.18,29.94c-.86.16-1.23-.16-1.39-1L86.24,16.86a1.38,1.38,0,0,0-1.19-.33,1.23,1.23,0,0,0-.94.78l2.58,12.17a2.8,2.8,0,0,0,3.53,2.38l1.31-.29-.41-1.84Z"/><path id="_Compound_Path_6" data-name="&lt;Compound Path&gt;" class="cls-2" d="M82.84,33.46l-.2-1a3.61,3.61,0,0,1-2.58,1.72,3.67,3.67,0,0,1-3-.37,3.31,3.31,0,0,1-1.31-2.13c-.37-1.8.57-3.36,3-3.89l2.79-.57-.16-.78c-.29-1.35-1.11-1.89-2.75-1.52a2.55,2.55,0,0,0-2.09,1.52l-1.68-1a4.38,4.38,0,0,1,3.44-2.34c2.87-.61,4.59.33,5.12,2.79l1.52,7.21Zm-1-4.76-2.46.53c-1.23.25-1.76,1-1.56,2s.94,1.39,2.25,1.11a2.55,2.55,0,0,0,1.84-1A2.21,2.21,0,0,0,82,29.61Z"/><path id="_Path_10" data-name="&lt;Path&gt;" class="cls-2" d="M95.47,21.41l-.37-1.64-2,.45-.7-3.28a1.38,1.38,0,0,0-1.19-.33,1.23,1.23,0,0,0-.94.78l.7,3.28-1.15.25.37,1.64,1.19-.25,1.27,5.94a2.84,2.84,0,0,0,3.53,2.38l1.27-.29L97,28.5l-.86.2a1.11,1.11,0,0,1-1.43-1l-1.23-5.82Z"/><path id="_Compound_Path_7" data-name="&lt;Compound Path&gt;" class="cls-2" d="M105.92,27.35A4.22,4.22,0,0,1,103,29.28a4.31,4.31,0,0,1-3.4-.61c-1.23-.86-1.76-2.17-2.13-4s-.41-3.24.33-4.51a4.22,4.22,0,0,1,2.87-1.93,4.45,4.45,0,0,1,3.44.61c1.23.86,1.76,2.17,2.13,4s.41,3.2-.37,4.51m-3.12-6.89a2.17,2.17,0,0,0-1.68-.29,2,2,0,0,0-1.39.94,4.43,4.43,0,0,0-.08,3.12A4.2,4.2,0,0,0,101,27a2.18,2.18,0,0,0,1.68.33,2.25,2.25,0,0,0,1.43-1,4.43,4.43,0,0,0,.08-3.12,4.64,4.64,0,0,0-1.39-2.79"/><path id="_Compound_Path_8" data-name="&lt;Compound Path&gt;" class="cls-2" d="M110.59,34.28a1,1,0,0,1-1.23-.82,1.08,1.08,0,0,1,.78-1.27,1,1,0,0,1,1.23.82,1,1,0,0,1-.78,1.27m-.41-2a.85.85,0,0,0-.66,1.07.87.87,0,0,0,1,.7.85.85,0,0,0,.66-1.07.91.91,0,0,0-1-.7m.53,1.43-.37-.41-.16,0,.08.45-.16,0-.25-1.15.37-.08a.34.34,0,0,1,.41.29.33.33,0,0,1-.16.37l.37.41Zm-.41-1-.2,0,.08.41.2,0c.12,0,.2-.12.16-.25s-.12-.16-.25-.16"/><g id="_Group_2" data-name="&lt;Group&gt;"><path id="_Compound_Path_9" data-name="&lt;Compound Path&gt;" class="cls-2" d="M33.61,38.63a1.14,1.14,0,0,1,.82-1.11L33,30.71a3.22,3.22,0,0,0-3.81-2.5l-13.9,3A3.24,3.24,0,0,0,12.83,35l3,14a3.22,3.22,0,0,0,3.81,2.5l13.86-3a3.24,3.24,0,0,0,2.46-3.85L35,40.27a.66.66,0,0,1-.45.2.72.72,0,0,1-.9-.74l0-1.11m-16,5.25,0,1.15a1.18,1.18,0,0,1-.86,1.11.71.71,0,0,1-.9-.74l0-1.15a1.2,1.2,0,0,1,.82-1.11.75.75,0,0,1,.94.74m3-.66.16,4.06a1.2,1.2,0,0,1-.82,1.11.71.71,0,0,1-.9-.74l-.16-4.06a1.2,1.2,0,0,1,.82-1.11.74.74,0,0,1,.9.74m2.91-2.46.29,7.79a1.14,1.14,0,0,1-.82,1.11.71.71,0,0,1-.9-.74l-.29-7.79A1.2,1.2,0,0,1,22.54,40a.71.71,0,0,1,.9.74m2.83-4.35.41,10.49A1.18,1.18,0,0,1,25.82,48a.71.71,0,0,1-.9-.74l-.41-10.49a1.2,1.2,0,0,1,.82-1.11.76.76,0,0,1,.94.74m3-1.64.29,7.79a1.14,1.14,0,0,1-.82,1.11.71.71,0,0,1-.9-.74l-.29-7.79A1.18,1.18,0,0,1,28.36,34a.72.72,0,0,1,.86.74m3,1.23.16,4.06a1.2,1.2,0,0,1-.82,1.11.71.71,0,0,1-.9-.74l-.16-4.06a1.18,1.18,0,0,1,.86-1.11.72.72,0,0,1,.86.74"/></g></g></svg>