<svg xmlns="http://www.w3.org/2000/svg" xmlns:xlink="http://www.w3.org/1999/xlink" width="459" height="506" viewBox="0 0 459 506">
    <defs>
        <ellipse id="b" cx="155.655" cy="157.226" rx="155.655" ry="157.226"/>
        <filter id="a" width="253.2%" height="251.7%" x="-76.6%" y="-73.9%" filterUnits="objectBoundingBox">
            <feOffset dy="3" in="SourceAlpha" result="shadowOffsetOuter1"/>
            <feGaussianBlur in="shadowOffsetOuter1" result="shadowBlurOuter1" stdDeviation="2.5"/>
            <feColorMatrix in="shadowBlurOuter1" result="shadowMatrixOuter1" values="0 0 0 0 0.0010291887 0 0 0 0 0.101570495 0 0 0 0 0.210352891 0 0 0 0.253113678 0"/>
            <feOffset dy="3" in="SourceAlpha" result="shadowOffsetOuter2"/>
            <feGaussianBlur in="shadowOffsetOuter2" result="shadowBlurOuter2" stdDeviation="132"/>
            <feColorMatrix in="shadowBlurOuter2" result="shadowMatrixOuter2" values="0 0 0 0 0.00127335869 0 0 0 0 0.148033683 0 0 0 0 0.298814838 0 0 0 0.0737092391 0"/>
            <feMerge>
                <feMergeNode in="shadowMatrixOuter1"/>
                <feMergeNode in="shadowMatrixOuter2"/>
            </feMerge>
        </filter>
    </defs>
    <g fill="none" fill-rule="evenodd">
        <g transform="translate(52 92.917)">
            <use fill="#000" filter="url(#a)" xlink:href="#b"/>
            <use fill="#FFF" xlink:href="#b"/>
        </g>
        <g fill="#055BB5">
            <path d="M208.004 268.934l-16.027-8.96v-18.611l16.027-9.306 15.687 9.306v18.61z"/>
            <path d="M245.856 228.61c-1.023-8.27-3.069-15.853-5.456-22.746 1.705 0 3.751-.345 5.456-.345 10.913 0 19.438 3.102 23.19 9.65 3.75 6.204 2.386 14.82-2.729 24.126 1.705 2.068 3.41 3.79 4.774 5.859 7.502-12.407 9.208-24.47 4.092-33.776-9.207-15.853-36.829-17.232-67.179-5.17-7.502-3.101-15.345-5.169-22.507-6.547 5.798-12.408 13.64-20.335 22.507-20.335 7.161 0 13.982 5.515 19.438 14.82 2.387-.69 5.115-1.034 7.502-1.378-7.161-12.752-16.369-20.68-26.94-20.68-18.073 0-33.078 23.437-37.852 56.178-6.48 5.17-12.277 10.684-17.05 16.198l-.342-.344c-7.843-11.718-9.889-22.402-5.797-29.295 3.41-5.859 11.595-9.306 22.507-9.65.682-2.413 1.705-4.825 2.728-7.238-15.005-.344-25.917 4.136-31.032 13.097-5.456 9.65-3.41 22.746 6.138 36.877 5.797 8.616 13.64 16.888 23.189 24.47 1.023 8.271 3.069 16.198 5.456 23.091h-.34c-13.982 1.034-24.213-2.412-28.305-9.65-3.41-5.859-2.387-14.82 2.728-24.125-1.705-2.068-3.41-3.791-4.774-5.86-7.843 13.097-9.207 24.815-4.092 33.776 4.774 8.616 15.345 13.097 29.668 13.097 1.705 0 3.41 0 5.115-.345 10.23-.69 21.143-3.446 32.396-7.927 7.843 3.102 15.346 5.514 22.507 6.548-5.797 12.408-13.64 20.335-22.507 20.335-7.161 0-13.981-5.515-19.437-14.82-2.388.69-5.116 1.034-7.503 1.378 7.161 12.752 16.369 20.68 26.94 20.68 18.074 0 33.078-23.437 37.852-56.178 6.48-5.17 12.277-10.684 17.051-16.199 7.843 11.374 10.571 22.058 6.138 29.64-3.751 6.204-11.594 9.65-22.507 9.65-.682 2.413-1.705 4.825-2.728 7.238h1.364c13.982 0 24.553-4.48 29.668-13.097 9.208-15.854-3.41-40.668-29.327-61.002zm-21.824 50.32c-2.728 1.722-5.798 3.1-8.526 4.48 3.07 1.033 6.48 2.067 9.549 3.101 1.023-.344 1.705-1.034 2.728-1.378 3.41-2.068 6.82-4.136 9.89-6.204-1.024 5.86-2.729 11.029-4.434 15.854-12.617-2.068-27.28-7.582-41.262-15.854-3.07-1.723-5.798-3.446-8.526-5.514.682 3.446 1.364 6.548 2.046 9.65 1.023.69 2.046 1.034 3.07 1.723 3.41 2.068 6.82 3.791 10.57 5.514a156.89 156.89 0 0 1-16.027 4.136c-4.433-12.407-7.16-27.572-7.16-44.115 0-3.446 0-6.548.34-9.994-2.728 2.068-5.115 4.48-7.502 6.548v3.102c0 4.136 0 7.927.34 11.718-4.432-3.791-8.183-7.927-11.594-11.718 8.526-10.34 20.461-20.334 34.102-28.261 2.728-1.723 5.797-3.102 8.525-4.48-3.07-1.034-6.48-2.068-9.548-3.102-1.023.344-1.705 1.034-2.729 1.378-3.41 2.068-6.82 4.136-9.889 6.204 1.023-5.86 2.728-11.029 4.433-15.854 12.959 2.068 27.622 7.582 41.263 15.854 3.069 1.723 5.797 3.446 8.525 5.514-.682-3.446-1.364-6.548-2.046-9.65-1.023-.69-2.046-1.034-3.07-1.723-3.41-2.068-6.82-3.791-10.23-5.514 5.457-1.724 10.913-3.102 15.687-4.136 4.433 12.062 7.161 27.571 7.161 44.114 0 3.447 0 6.549-.34 9.995 2.727-2.068 5.114-4.48 7.501-6.548v-3.102c0-4.136 0-7.927-.34-11.718 4.433 3.791 8.184 7.927 11.253 11.718-7.843 9.995-19.438 19.99-33.76 28.261z"/>
        </g>
        <path fill="#FFF" d="M336.75 60C323.574 60 313 70.736 313 83.75c0 13.176 10.736 23.75 23.75 23.75s23.75-10.736 23.75-23.75A23.674 23.674 0 0 0 336.75 60zm-6.344 31.558V75.78h26.84c.977 2.44 1.465 5.206 1.465 7.971 0 2.765-.488 5.368-1.464 7.808h-26.841zM356.27 73.99h-11.387V63.579c5.042 1.952 9.11 5.693 11.387 10.41zm-19.521-12.2c2.277 0 4.392.325 6.344.975v11.062H317.23c3.58-6.995 10.9-12.038 19.521-12.038zm-20.334 13.99h12.038v15.778h-12.2c-.977-2.44-1.465-5.043-1.465-7.808 0-2.765.651-5.53 1.627-7.97zm.65 17.73h26.028v11.225c-1.952.65-4.067.976-6.344.976-8.622 0-16.104-5.043-19.683-12.2zm27.98 10.574V93.51h11.387c-2.44 4.718-6.507 8.622-11.387 10.574zM253.75 26C241.128 26 231 36.284 231 48.75c0 12.622 10.284 22.75 22.75 22.75 12.622 0 22.75-10.284 22.75-22.75A22.677 22.677 0 0 0 253.75 26zm18.854 13.557c-.779.311-1.246.623-1.714 1.246-3.74-1.09-9.505-2.181-17.296-1.87-1.402 0-2.96.156-4.207.312-.312-.935-1.09-1.87-2.026-2.337 1.247-4.363 2.493-7.48 3.428-9.038.935-.156 2.026-.312 3.117-.312 8.103.156 15.27 4.987 18.698 11.999zm-26.333 23.996h-.156c-.624-3.584-1.247-8.57-.78-14.959.156-1.402.156-2.649.468-3.895 2.026-.156 3.584-1.714 3.74-3.584 1.246-.156 2.649-.156 4.051-.312 7.324-.156 12.933.78 16.517 1.714 0 .312-.156.623-.156.78 0 1.246.624 2.337 1.559 3.116a61.215 61.215 0 0 1-9.038 9.972c-4.986 4.363-9.505 7.012-12.933 8.726-.78-.935-2.026-1.558-3.272-1.558zm2.181-35.06c-.78 1.87-2.026 4.675-2.96 8.103-2.182 0-4.052 1.714-4.052 4.051-3.428.78-6.077 1.714-7.791 2.493 1.87-7.167 7.635-12.777 14.803-14.647zM232.714 48.75c0-1.247.156-2.337.312-3.584 1.558-.779 4.674-1.87 8.726-2.805.467.935 1.246 1.714 2.181 2.026-.156 1.247-.311 2.649-.467 4.051-.468 6.545.156 11.843.779 15.583-.935.467-1.714 1.402-2.026 2.337-5.61-3.74-9.505-10.284-9.505-17.608zm21.036 21.036c-1.247 0-2.649-.156-3.896-.312.312-.623.468-1.246.468-1.87v-.779c3.428-1.714 8.103-4.363 13.245-9.037 4.363-3.74 7.323-7.48 9.505-10.44.312 0 .623.155.935.155h.623v1.247c.156 11.53-9.35 21.036-20.88 21.036z"/>
        <g fill="#FFF">
            <path d="M171.647 22.11c11.893 0 21.697 9.643 21.697 21.697 0 11.894-9.643 21.698-21.697 21.698a21.607 21.607 0 0 1-21.698-21.698c.16-11.893 9.804-21.697 21.698-21.697zm0-1.768a23.39 23.39 0 0 0-23.466 23.465 23.39 23.39 0 0 0 23.466 23.466 23.39 23.39 0 0 0 23.465-23.466c.161-13.018-10.447-23.465-23.465-23.465z"/>
            <path d="M155.896 43.807l-1.607-1.607c4.66-4.66 10.929-7.232 17.358-7.232 6.59 0 12.697 2.571 17.358 7.232l-1.607 1.607c-4.18-4.178-9.805-6.59-15.751-6.59-5.786 0-11.412 2.25-15.751 6.59z"/>
            <path d="M182.897 48.147a15.81 15.81 0 0 0-11.25-4.661 15.81 15.81 0 0 0-11.25 4.661l-1.608-1.607c3.536-3.375 8.036-5.304 12.858-5.304 4.821 0 9.322 1.929 12.858 5.304l-1.608 1.607z"/>
            <path d="M165.057 52.647l-1.607-1.607c2.25-2.25 5.143-3.536 8.357-3.536 3.215 0 6.108 1.286 8.358 3.536l-1.607 1.607c-1.768-1.768-4.018-2.893-6.59-2.893-2.732 0-5.143.965-6.91 2.893z"/>
        </g>
        <path fill="#FFF" d="M414.75 209c-13.176 0-23.75 10.736-23.75 23.75 0 13.176 10.736 23.75 23.75 23.75s23.75-10.736 23.75-23.75S427.764 209 414.75 209zm21.798 23.913c0 3.741-.976 7.32-2.603 10.41l-12.2-10.085 12.363-10.248c1.627 2.765 2.44 6.181 2.44 9.923zm-21.798-21.96c7.646 0 14.478 4.066 18.382 10.085L414.75 236.49l-18.382-15.453c3.904-6.182 10.574-10.086 18.382-10.086zm-19.52 11.874l12.362 10.411-12.2 10.086c-1.627-3.091-2.603-6.67-2.603-10.411 0-3.742.814-7.158 2.44-10.086zm19.52 31.884c-7.646 0-14.315-3.904-18.22-9.76l12.69-10.574 4.88 4.066c.162.163.487.326.65.326.163 0 .488-.163.65-.326l4.88-4.066 12.69 10.573c-4.068 6.02-10.737 9.76-18.22 9.76z"/>
        <g fill="#FFF">
            <path d="M421.092 326.328v-.325a23.29 23.29 0 0 0-6.75-16.38l-.322-.325c-4.179-4.216-9.804-6.65-16.233-6.811h-.482c-6.268 0-12.054 2.595-16.233 6.811l-.322.325c-4.178 4.216-6.59 9.893-6.75 16.38v.487a23.29 23.29 0 0 0 6.75 16.38l.322.325c4.179 4.217 9.804 6.65 16.233 6.812h.321c6.269 0 12.055-2.595 16.233-6.812l.161-.162.16-.163c4.34-4.379 6.912-10.055 6.912-16.542zm-7.554 14.596l-3.536-3.568c-.321-.324-.964-.324-1.286 0-.321.325-.321.973 0 1.298l3.536 3.568c-3.696 3.406-8.357 5.514-13.661 5.676v-5.028c0-.486-.483-.973-.965-.973s-.964.487-.964.973v5.028c-5.304-.162-9.965-2.27-13.661-5.676l3.535-3.568c.322-.325.322-.973 0-1.298-.321-.324-.964-.324-1.285 0l-3.536 3.568c-3.375-3.73-5.465-8.433-5.626-13.785h4.822c.482 0 .964-.487.964-.974 0-.486-.482-.973-.964-.973h-4.822c.161-5.352 2.25-10.055 5.626-13.785l3.536 3.568c.16.162.482.324.643.324.16 0 .482-.162.642-.324.322-.325.322-.973 0-1.298l-3.535-3.568c3.696-3.406 8.357-5.514 13.661-5.676v5.027c0 .487.482.974.964.974s.965-.487.965-.974v-5.027c5.304.162 9.965 2.27 13.661 5.676l-3.536 3.568c-.321.325-.321.973 0 1.298.161.162.482.324.643.324.16 0 .482-.162.643-.324l3.536-3.568c3.375 3.73 5.465 8.433 5.625 13.785h-4.982c-.482 0-.965.487-.965.973 0 .487.483.974.965.974h4.982c-.16 5.19-2.25 10.055-5.625 13.785z"/>
            <path d="M397.626 314.813c-6.107 0-11.25 5.027-11.25 11.352 0 6.163 4.982 11.353 11.25 11.353 6.269 0 11.251-5.027 11.251-11.353 0-6.163-4.982-11.352-11.25-11.352zm0 20.76c-5.143 0-9.322-4.218-9.322-9.408 0-5.19 4.18-9.406 9.322-9.406 5.143 0 9.322 4.217 9.322 9.406 0 5.19-4.179 9.407-9.322 9.407z"/>
        </g>
        <g fill="#FFF">
            <path d="M343.085 379.41c11.781 0 21.175 9.644 21.175 21.377 0 11.894-9.553 21.376-21.175 21.376-11.781 0-21.175-9.643-21.175-21.376 0-11.893 9.553-21.376 21.175-21.376zm0-1.928c-12.737 0-23.085 10.447-23.085 23.305s10.348 23.305 23.085 23.305 23.085-10.447 23.085-23.305-10.348-23.305-23.085-23.305z"/>
            <path d="M348.18 386.804h-10.19c-2.07 0-3.661 1.607-3.661 3.697v20.572c0 2.09 1.592 3.697 3.661 3.697h10.19c2.07 0 3.661-1.607 3.661-3.697v-20.572c0-2.09-1.592-3.697-3.661-3.697zm-11.94 23.626v-19.769h13.69v19.77h-13.69z"/>
        </g>
        <g fill="#FFF" transform="translate(160 428)">
            <path d="M23.716 0C10.552 0 .021 10.696.021 23.695.02 36.86 10.717 47.39 23.716 47.39c13 0 23.695-10.695 23.695-23.695S36.881 0 23.716 0zm21.885 22.872H37.21v-5.43c0-2.139-1.645-3.784-3.784-3.784h-8.722V1.975a21.836 21.836 0 0 1 20.898 20.897zM22.73 1.975v11.683H4.299C7.92 7.076 14.83 2.304 22.73 1.975zM3.476 15.632h29.949c.987 0 1.81.823 1.81 1.81v12.835c0 .988-.823 1.81-1.81 1.81H3.476c-.987-2.633-1.645-5.43-1.645-8.227 0-2.962.658-5.76 1.645-8.228zm.988 18.43h18.43V45.58c-8.064-.329-14.975-4.936-18.43-11.518zm20.24 11.518V34.062h8.72c2.14 0 3.785-1.646 3.785-3.785v-5.43h8.392c-.493 11.19-9.544 20.24-20.898 20.733z"/>
            <circle cx="20.919" cy="23.86" r="2.304"/>
            <circle cx="28.653" cy="23.86" r="2.304"/>
        </g>
        <path fill="#FFF" d="M377.709 166.27l7.773-11.1a.937.937 0 1 0-1.537-1.075l-7.765 11.092c-5.048-3.918-8.306-10.04-8.306-16.91 0-5.9 2.4-11.248 6.271-15.123.012.018.019.036.032.054l24.132 34.466a21.276 21.276 0 0 1-9.033 2.006 21.27 21.27 0 0 1-11.567-3.41m22.98-36.086l-9.656 13.788-10.62-15.168a21.252 21.252 0 0 1 8.863-1.93c4.194 0 8.106 1.217 11.413 3.31m-.706 36.613l-24.271-34.663a.9.9 0 0 0-.216-.215 21.479 21.479 0 0 1 3.232-2.254l24.427 34.886a21.488 21.488 0 0 1-3.172 2.246m10.697-18.52c0 5.83-2.346 11.12-6.14 14.983l-12.362-17.654 10.05-14.354c5.131 3.914 8.452 10.088 8.452 17.025m1.874 0c0-12.855-10.423-23.277-23.278-23.277C376.42 125 366 135.422 366 148.277c0 12.854 10.42 23.277 23.276 23.277 3.891 0 7.557-.96 10.781-2.65a.95.95 0 0 0 .204-.104c7.315-3.924 12.293-11.642 12.293-20.523"/>
        <g fill="#FFF">
            <path d="M273.067 439.589a2.343 2.343 0 0 0-2.339 2.347 2.343 2.343 0 0 0 2.34 2.346c1.291 0 2.338-1.05 2.338-2.346a2.343 2.343 0 0 0-2.339-2.347M280.366 439.025a.935.935 0 0 0-1.674.432.932.932 0 0 0 .177.695 10.728 10.728 0 0 1 2.152 6.477 10.73 10.73 0 0 1-2.15 6.477.938.938 0 0 0 .186 1.314.925.925 0 0 0 .693.178.926.926 0 0 0 .616-.365 12.575 12.575 0 0 0 2.526-7.604 12.585 12.585 0 0 0-2.526-7.604"/>
            <path d="M284.467 436.705a.935.935 0 0 0-1.303-.234.943.943 0 0 0-.232 1.308 15.433 15.433 0 0 1 2.767 8.85c0 3.186-.957 6.247-2.767 8.85a.941.941 0 0 0 .232 1.307.934.934 0 0 0 1.303-.232 17.305 17.305 0 0 0 3.103-9.925c0-3.573-1.073-7.004-3.103-9.924"/>
            <path d="M279.487 465.13l-15.413-17.79c-.308-.355-.308-1.067 0-1.423l15.413-17.789c6.246 3.786 10.429 10.663 10.429 18.502 0 7.839-4.183 14.715-10.43 18.5m-21.798.235l9.767-11.273 10.357 11.954a21.344 21.344 0 0 1-9.423 2.181 21.334 21.334 0 0 1-10.701-2.862m-10.826-18.735c0-7.328 3.657-13.814 9.235-17.72l10.122 11.683-3.38 3.9c-.52.601-.779 1.365-.779 2.137 0 .771.265 1.547.79 2.148l3.372 3.89-10.123 11.683c-5.579-3.907-9.237-10.393-9.237-17.721m30.95-19.417l-10.359 11.955-9.767-11.274a21.34 21.34 0 0 1 10.703-2.864c3.377 0 6.576.786 9.424 2.183m-9.424-4.05c-12.917 0-23.39 10.506-23.39 23.467 0 12.959 10.473 23.465 23.39 23.465 12.918 0 23.39-10.506 23.39-23.465 0-12.96-10.472-23.468-23.39-23.468"/>
        </g>
    </g>
</svg>
