<svg id="Layer_1" data-name="Layer 1" xmlns="http://www.w3.org/2000/svg" viewBox="0 0 111 34.84"><defs><style>.cls-1{fill:#ed2e26;}.cls-2{fill:#262626;}.cls-3{fill:#fff;}</style></defs><title>Artboard 21</title><path class="cls-1" d="M14.63,0c9.53,0,14.32,5.1,14.32,5.1a67.19,67.19,0,0,1,.2,11.37c-.53,11.48-14.51,18.37-14.51,18.37S.64,27.94.12,16.47A67.19,67.19,0,0,1,.31,5.1S5.1,0,14.63,0Z"/><path class="cls-2" d="M46.85,9a8.39,8.39,0,0,0-8.38,8.38,9.32,9.32,0,0,0,3.4,7.21,17.44,17.44,0,0,0,8.52,3.61,5.45,5.45,0,0,0,1.72-1.81,23,23,0,0,1-3.71-.87,4.83,4.83,0,0,0,1-.2,8.26,8.26,0,0,0,5.85-7.94A8.42,8.42,0,0,0,46.85,9Zm0,14.35a6,6,0,1,1,6-6A6,6,0,0,1,46.85,23.36Z"/><path class="cls-2" d="M108.81,22.56a1.34,1.34,0,0,1,1.83,0,1.38,1.38,0,0,1,0,1.85,1.34,1.34,0,0,1-1.83,0A1.38,1.38,0,0,1,108.81,22.56Zm.18,1.68a1.07,1.07,0,0,0,1.46,0,1.13,1.13,0,0,0,0-1.5,1.07,1.07,0,0,0-1.46,0A1.13,1.13,0,0,0,109,24.24Zm1.27-1.08a.42.42,0,0,1-.32.42l.36.57H110l-.33-.55h-.17v.55h-.24V22.74h.52a.47.47,0,0,1,.33.11.39.39,0,0,1,.12.3Zm-.73-.2v.41h.25a.24.24,0,0,0,.17-.06.19.19,0,0,0,.06-.15q0-.21-.23-.21Z"/><path class="cls-2" d="M93.19,21.24l-2.83-7.51H87.84L92,24.22l-1.83,4.34c1.2,0,2.52-.08,3-1.35,1.21-3,5.41-13.47,5.41-13.47H96.06Z"/><path class="cls-2" d="M83.73,25s2.34,0,2.34-1.63V9.09H83.73Z"/><path class="cls-2" d="M78.88,15.21a4.57,4.57,0,0,0-3.8-1.79,5.58,5.58,0,0,0-5.61,5.79,6,6,0,0,0,1.49,4A5.39,5.39,0,0,0,75.08,25a4.56,4.56,0,0,0,3.8-1.78V25s2.34,0,2.34-1.63V13.73H78.88Zm-3.51,7.58a3.48,3.48,0,0,1-3.57-3.55v0a3.49,3.49,0,0,1,3.53-3.6,3.4,3.4,0,0,1,3.27,2.1,3.24,3.24,0,0,1,.3,1.51,3.88,3.88,0,0,1-.36,1.53A3.34,3.34,0,0,1,75.37,22.79Z"/><path class="cls-2" d="M65.2,19.83c0,1.89-1,2.94-2.76,3s-2.68-1-2.68-3.13V13.73H57.41v6.4a5.68,5.68,0,0,0,.9,3.27A4.14,4.14,0,0,0,61.87,25h.07a3.89,3.89,0,0,0,3.38-1.55V25s2.22,0,2.22-1.55v-9.7H65.2Z"/><path class="cls-2" d="M104.2,18.18c-1.22-.53-2.1-1-2.09-1.69,0-.47.63-.91,1.26-.89a2,2,0,0,1,1.47.87s1.28-1.09,1.43-1.21a3.59,3.59,0,0,0-3-1.74,3.25,3.25,0,0,0-3.34,3.15c0,1.54.87,2.17,2,2.84l1.94,1.09c.45.31.66.55.65,1a1.4,1.4,0,0,1-1.47,1.29,2,2,0,0,1-1.57-.8,2.63,2.63,0,0,0-2.74-.36A5,5,0,0,0,103,25a3.68,3.68,0,0,0,3.86-3.56C106.91,20.5,106.48,19.28,104.2,18.18Z"/><path class="cls-3" d="M7.48,15.09a7.27,7.27,0,0,1,7.15-7.36,7.17,7.17,0,0,1,7.16,7.16c0,3.15-2.71,5.74-4.8,7.07a12.56,12.56,0,0,0,4.31,1.1,10.33,10.33,0,0,0,4-8.18,10.69,10.69,0,1,0-21.38,0A11.82,11.82,0,0,0,8.23,24c2.62,2.27,6.46,3.78,10.83,4.49a12.44,12.44,0,0,0,3.17-3A29.67,29.67,0,0,1,12.81,23C9.27,21.13,7.48,18.47,7.48,15.09Z"/></svg>