<svg id="Layer_1" data-name="Layer 1" xmlns="http://www.w3.org/2000/svg" viewBox="0 0 128.32 21.57"><defs><style>.cls-1{fill:#e65824;}</style></defs><title>Artboard 22</title><path d="M22,6.12C22,2.59,19.3,0,14.52,0H4.78L0,21.57H5.43l1.65-7.41h3.19l3.14,7.41h5.42l-3.37-7.77A7.59,7.59,0,0,0,22,6.12Zm-8.7,3.52H8.09L9.23,4.5h4.88c1.6,0,2.55.87,2.55,2.12A3,3,0,0,1,13.35,9.64Z"/><path d="M34,0,21.42,21.56h5.42L28.94,18H39l.79,3.57h5.42L40.44,0ZM31.58,13.49l4.65-7.95L38,13.49Z"/><path d="M61.73,0H52.56L47.78,21.56h5.4l1.66-7.41H60.9a8,8,0,0,0,8.31-8C69.22,2.55,66.35,0,61.73,0ZM60.66,9.64H55.84L57,4.5h4.2c1.65,0,2.67.78,2.67,2.12A3,3,0,0,1,60.66,9.64Z"/><polygon points="79.42 0 73.98 0 69.2 21.57 74.63 21.57 79.42 0"/><path class="cls-1" d="M118.56,0H101.44a9.58,9.58,0,0,1,.75.82,12.89,12.89,0,0,1,2.93,8.39,16.48,16.48,0,0,1-5.45,12.34h10.48l5-12.28h-6.24l1.05-4.76h12.37l-6.5,17.06h2.55c5.95,0,10-4.85,10-10.8S124.51,0,118.56,0Z"/><path d="M99.21,3.52C97.33,1.28,94.27,0,90.64,0h-7L78.9,21.57h8.76a15.17,15.17,0,0,0,8-2,11.85,11.85,0,0,0,5.49-10.4A8.74,8.74,0,0,0,99.21,3.52ZM88.32,17.06h-3L88.1,4.52h2.82c3.11,0,4.85,2.32,4.85,5.2A7.16,7.16,0,0,1,88.32,17.06Z"/></svg>