<svg xmlns="http://www.w3.org/2000/svg" width="996.3193" height="166.5996" viewBox="0 0 996.3193 166.5996"><defs><style>.a,.b{fill:#293e40;}.a,.c{fill-rule:evenodd;}.c{fill:#82b6a1;}</style></defs><title>Primary Logo</title><path class="a" d="M246.4033,55.8047a42.3553,42.3553,0,0,0-27.1846,9.76V56.8H194.414v96.6025h25.7969V91.6592c3.5723-4.98,12.5-11.9531,23.4141-11.9531,3.8857,0,7.4433.2832,10.3535,1.5507V56.4678a43.8205,43.8205,0,0,0-7.5752-.6631"/><path class="a" d="M21.501,123.9248c6.5468,5.9756,16.6679,9.56,26.3906,9.56,6.9453,0,12.3027-3.3858,12.3027-8.1651,0-14.539-46.63-9.3623-46.63-40.4336,0-18.5234,17.8574-30.0781,36.9082-30.0781,12.501,0,26.1934,4.7813,32.542,9.7608L70.9111,83.291c-4.9609-3.5849-11.51-6.5722-18.4551-6.5722-7.1425,0-13.0967,2.788-13.0967,7.7666,0,12.55,46.6319,7.5712,46.6319,41.0322,0,18.5244-18.0567,29.8789-38.2969,29.8789A66.4071,66.4071,0,0,1,9,142.4492Z"/><path class="a" d="M183.4043,104.2051c0-26.89-18.85-49.3975-45.44-49.3975-28.5752,0-46.831,23.5039-46.831,50.3936,0,30.2754,21.6289,50.1933,50.4013,50.1933,14.8819,0,30.1612-6.1728,39.4893-17.3291l-14.6836-14.7392c-4.5654,4.98-13.2959,11.1552-24.209,11.1552-13.6933,0-24.6064-9.3632-25.9961-22.9052H182.81A42.695,42.695,0,0,0,183.4043,104.2051ZM117.3271,92.6533c1.1905-8.7656,9.9229-16.9306,20.6377-16.9306a19.2171,19.2171,0,0,1,19.0479,16.9306Z"/><polygon class="a" points="315.458 115.758 341.849 56.8 368.638 56.8 324.386 153.402 306.527 153.402 262.277 56.8 289.067 56.8 315.458 115.758"/><path class="a" d="M390.2988,11.4375a16.5356,16.5356,0,1,1-16.8662,16.5313,16.5493,16.5493,0,0,1,16.8662-16.5313"/><rect class="b" x="377.4013" y="56.7998" width="25.7969" height="96.6025"/><path class="a" d="M509.8554,133.6836c-11.3095,15.1367-25.5966,21.7109-43.6543,21.7109-29.7656,0-51.5927-22.3076-51.5927-50.1924,0-28.0869,22.4228-50.3945,51.791-50.3945,16.668,0,31.5508,7.77,40.4795,19.3223L488.624,90.2627c-5.1582-6.7734-12.8984-11.5537-22.2246-11.5537-14.8828,0-25.9951,11.7529-25.9951,26.4931,0,15.1358,10.9131,26.29,26.59,26.29,10.5176,0,18.8506-6.374,23.0186-12.7461Z"/><path class="a" d="M603.5478,138.0654c-9.3271,11.1563-24.6064,17.3291-39.4892,17.3291-28.77,0-50.4-19.9179-50.4-50.1933,0-26.89,18.2558-50.3936,46.83-50.3936,26.59,0,45.4394,22.5078,45.4394,49.3975a42.6063,42.6063,0,0,1-.5947,7.3711H538.66c1.3887,13.542,12.3037,22.9052,25.9951,22.9052,10.9131,0,19.6446-6.1748,24.21-11.1552ZM579.5371,92.6533a19.2188,19.2188,0,0,0-19.0488-16.9306c-10.7139,0-19.4473,8.165-20.6377,16.9306Z"/><path class="a" d="M616.1826,153.4023V56.8h24.8037v7.7676a42.35,42.35,0,0,1,27.1836-9.76,43.2874,43.2874,0,0,1,33.3369,15.5371c6.3506,7.5684,9.9209,17.3291,9.9209,33.86v49.1972H685.6328V102.2129c0-9.56-2.1836-14.5391-5.7529-18.124-3.376-3.3868-8.5342-5.38-14.4873-5.38-10.9141,0-19.8418,6.9726-23.4141,11.9531v62.74Z"/><path class="c" d="M777.8515,54.81c-30.8222-.1778-56.3183,25.0429-56.5752,55.9824a56.4173,56.4173,0,0,0,17.667,41.5615,11.156,11.156,0,0,0,14.5039.7656,40.3169,40.3169,0,0,1,48.15,0,11.1946,11.1946,0,0,0,14.5889-.8476A56.5028,56.5028,0,0,0,777.8515,54.81m-.3291,84.6884c-16.6953,0-28.123-12.5712-28.123-28.121,0-15.5567,11.4277-28.3389,28.123-28.3389,16.7012,0,28.1221,12.7822,28.1221,28.3389,0,15.55-11.4209,28.121-28.1221,28.121"/><polygon class="a" points="884.817 153.402 865.605 153.402 827.295 56.8 853.052 56.8 874.054 112.007 894.651 56.8 916.178 56.8 936.587 112.007 957.776 56.8 983.535 56.8 945.226 153.402 926.011 153.402 905.415 98.395 884.817 153.402"/><polygon class="b" points="969.39 141.133 969.39 143.236 966.148 143.236 966.148 153.402 963.779 153.402 963.779 143.236 960.538 143.236 960.538 141.133 969.39 141.133"/><polygon class="b" points="977.402 148.477 981.871 141.133 983.535 141.133 983.535 153.402 981.169 153.402 981.169 146.566 978.224 151.387 976.578 151.387 973.632 146.566 973.632 153.402 971.268 153.402 971.268 141.133 972.931 141.133 977.402 148.477"/></svg>