<svg id="Layer_1" data-name="Layer 1" xmlns="http://www.w3.org/2000/svg" viewBox="0 0 105.69 31.34"><defs><style>.cls-1{fill:#99999a;}</style></defs><title>Artboard 17</title><path d="M11.17,19a4.43,4.43,0,0,1-.4,2,3.7,3.7,0,0,1-1.29,1.48,6.84,6.84,0,0,1-1.88,1,9.93,9.93,0,0,1-2.37.4,8.53,8.53,0,0,1-2.77-.4A6.36,6.36,0,0,1,0,21.95l1.38-2.27a9.29,9.29,0,0,0,1.78,1.19,2.13,2.13,0,0,0,1.58.4,3.33,3.33,0,0,0,1.68-.49A1.62,1.62,0,0,0,7,19.38a1.68,1.68,0,0,0-.1-.69,1.59,1.59,0,0,0-.4-.69c-.3-.3-.59-.49-.89-.79s-.79-.59-1.38-1L3,15.23a5.18,5.18,0,0,1-1.09-1,8.25,8.25,0,0,1-.79-1.19,4.1,4.1,0,0,1-.3-1.58,3.62,3.62,0,0,1,.4-1.78A5.2,5.2,0,0,1,2.37,8.31a5.5,5.5,0,0,1,1.68-.89,8.24,8.24,0,0,1,2.18-.3,10.56,10.56,0,0,1,2.47.3,8.65,8.65,0,0,1,2.18,1l-1.29,2a4.34,4.34,0,0,0-2.67-.89,2.27,2.27,0,0,0-1.38.4A1.37,1.37,0,0,0,4.94,11a1.82,1.82,0,0,0,.49,1.19,11.38,11.38,0,0,0,1.68,1.38,19.65,19.65,0,0,1,2,1.58,7.9,7.9,0,0,1,1.29,1.29A3.34,3.34,0,0,1,11,17.6a2.37,2.37,0,0,1,.2,1.38"/><path d="M25.31,15.23a6.91,6.91,0,0,0-1.09-4.15,3,3,0,0,0-2.87-1.48,3.79,3.79,0,0,0-3.06,1.58,7.53,7.53,0,0,0-1.09,4.35,7.22,7.22,0,0,0,1.09,4.25,3.35,3.35,0,0,0,3.06,1.48,3,3,0,0,0,1.88-.59,4.38,4.38,0,0,0,1.19-1.48,11.63,11.63,0,0,0,.69-2,13.4,13.4,0,0,0,.2-2m4.45-.2a10.18,10.18,0,0,1-.59,3.46,9.6,9.6,0,0,1-1.58,2.77,7.21,7.21,0,0,1-5.44,2.47,6.53,6.53,0,0,1-1.38-.1,5.57,5.57,0,0,1-1.19-.4,4.39,4.39,0,0,1-1.09-.79L17.3,21.26V31.34H13.15V7.42H17.3V9.69a7.13,7.13,0,0,1,2.47-2.08,6.62,6.62,0,0,1,3.06-.69,7.09,7.09,0,0,1,2.87.59A7.24,7.24,0,0,1,28,9.1a6.07,6.07,0,0,1,1.48,2.57c.1,1.19.3,2.27.3,3.36"/><rect x="31.64" width="4.15" height="23.43"/><path d="M49.53,23.43V21.26a9.47,9.47,0,0,1-2.47,2,7.57,7.57,0,0,1-3,.59A6,6,0,0,1,40.93,23a4.47,4.47,0,0,1-1.88-2.18,1.83,1.83,0,0,1-.2-.69c-.1-.3-.1-.59-.2-.89s-.1-.79-.1-1.09V7.42h4.15v9.1a12,12,0,0,0,.1,1.88,5.57,5.57,0,0,0,.4,1.19A2.78,2.78,0,0,0,45.78,21,3.26,3.26,0,0,0,49,19a2.58,2.58,0,0,0,.3-1.09,10.75,10.75,0,0,0,.1-1.78V7.42h4.15v16Z"/><path d="M67.73,23.43V14.24a12,12,0,0,0-.1-1.88,5.57,5.57,0,0,0-.4-1.19,2.78,2.78,0,0,0-2.57-1.38,5.31,5.31,0,0,0-2.08.49,3.15,3.15,0,0,0-1.29,1.48A2.63,2.63,0,0,0,61,13a10.75,10.75,0,0,0-.1,1.78v8.6H56.65V7.42H60.9V9.59a9.47,9.47,0,0,1,2.47-2,7.57,7.57,0,0,1,3-.59,6,6,0,0,1,3.16.79A4.47,4.47,0,0,1,71.38,10a1.83,1.83,0,0,1,.2.69c.1.3.1.59.2.89s.1.79.1,1.09V23.33Z"/><polygon points="85.42 23.73 79.1 14.93 79.1 23.43 74.84 23.43 74.84 0 79.1 0 79.1 13.74 79.49 13.74 85.13 7.22 88.29 8.6 82.95 14.34 89.28 22.34 85.42 23.73"/><polygon class="cls-1" points="92.94 22.94 92.94 20.17 102.83 15.32 92.94 10.48 92.94 7.61 105.69 14.04 105.69 16.61 92.94 22.94"/><path class="cls-1" d="M94.22,3.46a1.43,1.43,0,1,1-.1,2.87,1.35,1.35,0,0,1-1.38-1.38,1.46,1.46,0,0,1,1.48-1.48Zm0,.2A1.2,1.2,0,0,0,93,4.84h0a1.19,1.19,0,1,0,2.37,0h0a1.36,1.36,0,0,0-1.19-1.19Zm-.3,2.08h-.3V4.15h.49a.89.89,0,0,1,.49.1c.1.1.2.2.1.3s-.1.4-.3.4h0c.2,0,.3.2.3.4a.59.59,0,0,0,.1.4h-.3a.59.59,0,0,1-.1-.4.26.26,0,0,0-.3-.3h-.2Zm0-.89h.2c.2,0,.4-.1.4-.3s-.1-.2-.4-.2h-.2Z"/></svg>